<?xml version="1.0" standalone="no"?>
<!DOCTYPE svg PUBLIC "-//W3C//DTD SVG 20010904//EN"
 "http://www.w3.org/TR/2001/REC-SVG-20010904/DTD/svg10.dtd">
<svg version="1.0" xmlns="http://www.w3.org/2000/svg"
 width="196.000000pt" height="200.000000pt" viewBox="0 0 196.000000 200.000000"
 preserveAspectRatio="xMidYMid meet">

<g transform="translate(0.000000,200.000000) scale(0.100000,-0.100000)"
fill="#000000" stroke="none">
<path d="M178 1909 l-178 -91 0 -909 0 -909 380 0 c297 0 380 3 380 13 0 8 3
7 10 -3 20 -31 18 -1 -4 65 -13 39 -26 84 -30 100 l-6 30 21 -27 c24 -32 34
-35 43 -12 5 14 4 15 -8 5 -11 -9 -20 -2 -46 39 -38 59 -48 86 -103 280 -33
118 -41 161 -41 233 -1 90 6 106 43 107 12 0 12 -3 3 -12 -19 -19 -14 -31 31
-67 l42 -34 -33 35 -33 35 13 84 c12 74 16 84 33 81 16 -3 17 -2 6 12 -7 9
-28 25 -46 36 -73 45 -121 170 -112 293 5 83 28 120 76 125 26 3 34 -2 49 -28
36 -67 42 -69 40 -18 -2 27 -6 48 -10 48 -3 0 -4 10 0 22 4 16 2 19 -8 13 -10
-6 -11 -4 -6 11 5 10 10 29 11 40 2 12 8 31 15 44 11 20 10 21 -11 15 -20 -7
-20 -4 9 31 18 21 28 40 22 42 -13 5 48 62 66 62 8 0 14 5 14 10 0 6 12 10 27
10 26 0 26 0 7 21 l-19 22 30 -8 c51 -12 137 -16 130 -5 -8 13 -4 13 38 -5 26
-11 36 -12 39 -3 3 8 15 4 37 -11 25 -18 35 -21 41 -11 6 9 15 7 39 -11 34
-25 38 -51 22 -122 -12 -49 -1 -39 22 21 l17 47 -4 -73 c-3 -68 -2 -72 14 -57
19 17 40 79 40 118 0 31 23 40 68 27 18 -5 40 -6 48 -3 8 3 14 0 14 -7 0 -7 8
-10 19 -7 17 4 19 -4 26 -110 4 -63 5 -116 3 -118 -2 -2 -23 12 -47 31 -24 18
-49 34 -54 34 -6 0 -44 -19 -84 -42 -51 -29 -73 -47 -73 -61 0 -18 1 -19 23
-3 132 97 153 101 206 41 34 -39 37 -58 16 -95 -9 -16 -14 -54 -15 -104 0 -70
-3 -85 -29 -125 -16 -25 -42 -93 -57 -151 -25 -95 -34 -113 -92 -190 -107
-141 -118 -150 -176 -150 -82 1 -137 16 -158 41 -10 13 -59 84 -110 157 -50
72 -96 132 -100 132 -11 0 148 -233 197 -287 l40 -45 94 -9 c90 -9 95 -9 117
12 19 18 24 19 24 7 0 -9 -21 -33 -46 -53 l-46 -38 -75 6 c-44 3 -85 12 -101
23 -37 23 -131 93 -167 123 l-30 26 30 -33 c17 -19 65 -60 108 -93 59 -45 86
-59 112 -59 47 0 65 -9 58 -28 -8 -22 -23 -32 -48 -32 -20 0 -57 -50 -125
-165 -36 -62 -11 -32 36 42 l42 67 27 -60 c62 -136 65 -148 55 -226 -17 -128
-23 -118 76 -118 78 0 85 2 79 18 -4 9 -20 57 -36 105 -32 93 -32 143 -3 212
l12 30 26 -58 c43 -98 37 -62 -8 46 l-42 102 -42 3 c-23 2 -42 5 -42 8 0 20
25 44 45 44 33 0 136 95 128 118 -6 16 -6 16 10 0 14 -14 17 -39 18 -160 0
-79 5 -165 10 -193 5 -27 16 -90 24 -140 8 -50 17 -100 20 -113 l5 -22 330 0
330 1 -2 687 c-1 378 -4 662 -7 632 l-6 -55 -7 45 c-4 25 -10 93 -14 152 -4
64 -10 105 -16 102 -5 -3 -7 -12 -5 -18 3 -7 2 -28 -3 -47 -5 -22 -8 30 -9
144 -1 102 3 176 8 173 15 -10 21 41 14 116 l-8 73 -6 -50 -6 -50 -1 48 c-2
34 -6 47 -17 47 -13 0 -15 -110 -15 -932 0 -512 -2 -929 -4 -927 -6 6 -16 698
-16 1112 0 236 -3 356 -10 352 -5 -3 -10 -46 -10 -96 0 -53 -4 -89 -10 -89 -5
0 -10 5 -10 10 0 13 -25 13 -48 0 -9 -5 -68 -30 -131 -56 -63 -25 -123 -50
-133 -55 -13 -7 -7 7 18 48 42 66 50 76 41 50 -6 -17 -3 -16 31 4 20 13 38 27
40 31 2 4 22 12 45 18 23 6 51 15 62 19 11 5 32 13 48 20 15 6 27 18 27 27 0
12 -4 14 -12 7 -12 -9 -147 -68 -211 -92 -15 -6 -27 -7 -27 -2 0 4 56 32 126
61 l125 52 -3 131 c-2 98 0 131 10 134 6 3 13 23 14 46 1 23 5 -5 8 -63 l6
-105 2 148 c2 122 0 147 -12 147 -11 0 -16 -15 -19 -52 l-3 -53 -2 53 -2 52
-722 0 -723 -1 -177 -90z m389 -1221 c-3 -8 -6 -5 -6 6 -1 11 2 17 5 13 3 -3
4 -12 1 -19z m81 -309 c-3 -8 -7 -3 -11 10 -4 17 -3 21 5 13 5 -5 8 -16 6 -23z
m619 9 c-3 -8 -6 -5 -6 6 -1 11 2 17 5 13 3 -3 4 -12 1 -19z m-840 -10 c-3 -8
-6 -5 -6 6 -1 11 2 17 5 13 3 -3 4 -12 1 -19z m243 -62 c0 -26 -6 -18 -14 19
-5 22 -4 26 4 15 5 -8 10 -24 10 -34z m1105 -6 c-3 -5 -14 -10 -23 -9 -14 0
-13 2 3 9 27 11 27 11 20 0z m-45 -14 c0 -7 -101 -38 -106 -33 -3 3 14 11 38
20 46 15 68 20 68 13z m-1041 -46 c0 -10 -3 -8 -9 5 -12 27 -12 43 0 25 5 -8
9 -22 9 -30z m598 -32 c-3 -7 -5 -2 -5 12 0 14 2 19 5 13 2 -7 2 -19 0 -25z
m10 -60 c-3 -7 -5 -2 -5 12 0 14 2 19 5 13 2 -7 2 -19 0 -25z m-580 -10 c-3
-8 -6 -5 -6 6 -1 11 2 17 5 13 3 -3 4 -12 1 -19z m590 -55 c-3 -10 -5 -4 -5
12 0 17 2 24 5 18 2 -7 2 -21 0 -30z m167 21 c3 -8 2 -12 -4 -9 -6 3 -10 10
-10 16 0 14 7 11 14 -7z m-1024 -59 c14 -8 21 -14 15 -14 -5 0 -21 6 -35 14
-14 8 -20 14 -15 14 6 0 21 -6 35 -14z m1423 -5 c3 -11 1 -20 -4 -20 -5 0 -9
9 -9 20 0 11 2 20 4 20 2 0 6 -9 9 -20z"/>
<path d="M1109 1505 c17 -33 31 -51 31 -40 0 6 -10 21 -21 35 -13 17 -17 18
-10 5z"/>
<path d="M835 1454 c-22 -8 -46 -17 -54 -19 -8 -3 -11 -8 -8 -11 3 -3 37 2 76
11 l70 17 38 -23 c21 -13 46 -33 56 -44 10 -11 15 -14 11 -6 -6 11 -3 13 12 6
36 -15 74 -17 89 -5 24 20 18 25 -36 27 -36 1 -70 11 -112 32 -66 34 -84 36
-142 15z"/>
<path d="M928 1383 c7 -3 16 -2 19 1 4 3 -2 6 -13 5 -11 0 -14 -3 -6 -6z"/>
<path d="M605 1327 c-13 -26 -17 -50 -13 -110 3 -72 6 -79 38 -112 l35 -35 0
84 c-1 55 -5 89 -14 100 -22 26 -35 18 -17 -9 12 -18 16 -42 14 -83 l-3 -57
-19 28 c-10 16 -21 49 -24 75 -4 51 9 118 24 116 8 -1 47 -61 57 -89 3 -5 8
-7 12 -3 7 7 -48 113 -64 123 -5 2 -16 -10 -26 -28z"/>
<path d="M1285 1345 c-39 -18 -31 -18 25 -1 25 8 36 15 25 15 -11 0 -33 -6
-50 -14z"/>
<path d="M1295 1320 c-3 -5 -1 -10 4 -10 6 0 11 5 11 10 0 6 -2 10 -4 10 -3 0
-8 -4 -11 -10z"/>
<path d="M1407 1309 c4 -13 9 -17 15 -11 11 11 3 32 -12 32 -4 0 -6 -9 -3 -21z"/>
<path d="M913 1313 c9 -2 25 -2 35 0 9 3 1 5 -18 5 -19 0 -27 -2 -17 -5z"/>
<path d="M1185 1210 c1 -41 6 -85 10 -97 6 -18 3 -23 -9 -23 -10 0 -26 -5 -37
-11 -20 -10 -20 -11 -3 -30 24 -26 39 -24 63 10 l21 30 -19 73 c-11 40 -22 84
-25 98 -2 14 -3 -9 -1 -50z m15 -139 c0 -17 -25 -30 -40 -20 -13 8 -13 10 0
19 19 12 40 13 40 1z"/>
<path d="M726 1217 c3 -10 9 -15 12 -12 3 3 0 11 -7 18 -10 9 -11 8 -5 -6z"/>
<path d="M740 1181 c0 -6 4 -13 10 -16 6 -3 7 1 4 9 -7 18 -14 21 -14 7z"/>
<path d="M700 1054 c0 -11 7 -29 15 -40 13 -17 14 -16 3 16 -14 43 -18 49 -18
24z"/>
<path d="M948 1013 c-16 -2 -28 -7 -28 -11 0 -4 -3 -17 -6 -29 -6 -22 -4 -23
64 -23 64 0 122 14 122 29 -1 27 -84 46 -152 34z"/>
<path d="M1161 964 c0 -11 3 -14 6 -6 3 7 2 16 -1 19 -3 4 -6 -2 -5 -13z"/>
<path d="M1180 951 c0 -26 5 -31 47 -45 37 -13 48 -13 55 -4 17 28 7 46 -32
62 -58 23 -70 21 -70 -13z"/>
<path d="M1030 834 l-25 -15 34 5 c18 3 62 6 97 6 36 0 64 4 64 10 0 16 -141
11 -170 -6z"/>
<path d="M810 210 c-6 -11 -8 -20 -6 -20 3 0 10 9 16 20 6 11 8 20 6 20 -3 0
-10 -9 -16 -20z"/>
<path d="M1240 175 c0 -8 4 -15 10 -15 5 0 7 7 4 15 -4 8 -8 15 -10 15 -2 0
-4 -7 -4 -15z"/>
</g>
</svg>
