<svg data-v-423bf9ae="" xmlns="http://www.w3.org/2000/svg" viewBox="0 0 444 90" class="iconLeft"><!----><!----><!----><g data-v-423bf9ae="" id="d0e8c2fa-07fd-4fe1-9e99-e0513d105d7f" fill="#000000" transform="matrix(5.74712666777685,0,0,5.74712666777685,59.59419083918115,-4.48276072191684)"><path d="M1.13 4.05L1.13 13.73L2.56 13.73L2.56 9.59L5.84 9.59L5.84 8.29L2.56 8.29L2.56 5.38L6.96 5.38L6.96 4.05ZM12.88 6.59C12.63 6.36 12.24 6.15 11.58 6.15C10.68 6.15 9.97 6.52 9.45 7.22L9.45 6.33L8.19 6.33L8.19 13.73L9.52 13.73L9.52 8.74C9.94 7.70 10.57 7.41 11.33 7.41C11.77 7.41 12.12 7.50 12.39 7.77ZM14.66 7.99C15.20 7.62 15.83 7.41 16.62 7.41C17.68 7.41 18.34 7.80 18.34 9.11L18.34 9.37C17.75 9.11 17.05 8.97 16.39 8.97C14.76 8.97 13.57 9.83 13.57 11.45C13.57 13.08 14.74 13.83 16.23 13.83C17.04 13.83 17.79 13.61 18.41 13.20L18.41 13.73L19.64 13.73L19.64 9.03C19.64 6.85 18.45 6.15 16.77 6.15C15.54 6.15 14.67 6.52 14.13 6.93ZM16.52 12.73C15.58 12.73 14.83 12.33 14.83 11.38C14.83 10.39 15.65 9.95 16.72 9.95C17.23 9.95 17.84 10.05 18.34 10.23L18.34 12.29C17.79 12.57 17.11 12.73 16.52 12.73ZM21.71 6.33L21.71 13.73L23.04 13.73L23.04 8.71C23.45 7.73 24.11 7.41 24.89 7.41C25.87 7.41 26.52 7.90 26.52 9.18L26.52 13.73L27.85 13.73L27.85 9.04C27.85 6.97 26.81 6.15 25.31 6.15C24.30 6.15 23.52 6.52 22.97 7.24L22.97 6.33ZM34.45 6.33L31.25 10.00L31.25 3.39L29.92 3.84L29.92 13.73L31.25 13.73L31.25 11.62L32.51 10.19L34.86 13.73L36.30 13.73L33.33 9.24L35.90 6.33ZM42.10 6.33L38.89 10.00L38.89 3.39L37.56 3.84L37.56 13.73L38.89 13.73L38.89 11.62L40.15 10.19L42.50 13.73L43.95 13.73L40.98 9.24L43.54 6.33ZM49.74 6.33L46.54 10.00L46.54 3.39L45.21 3.84L45.21 13.73L46.54 13.73L46.54 11.62L47.80 10.19L50.15 13.73L51.59 13.73L48.62 9.24L51.18 6.33ZM57.39 6.33L54.18 10.00L54.18 3.39L52.85 3.84L52.85 13.73L54.18 13.73L54.18 11.62L55.44 10.19L57.79 13.73L59.23 13.73L56.27 9.24L58.83 6.33ZM65.03 6.33L61.82 10.00L61.82 3.39L60.49 3.84L60.49 13.73L61.82 13.73L61.82 11.62L63.08 10.19L65.44 13.73L66.88 13.73L63.91 9.24L66.47 6.33Z"></path></g><defs data-v-423bf9ae=""><linearGradient data-v-423bf9ae="" gradientTransform="rotate(25)" id="ee7e619a-ba3e-4f27-b237-2f2b18becf81" x1="0%" y1="0%" x2="100%" y2="0%"><stop data-v-423bf9ae="" offset="0%" style="stop-color: rgb(13, 33, 117); stop-opacity: 1;"></stop><stop data-v-423bf9ae="" offset="100%" style="stop-color: rgb(31, 30, 251); stop-opacity: 1;"></stop></linearGradient></defs><g data-v-423bf9ae="" id="ca75db1e-4b8e-4358-915e-a54a3e2bb11c" transform="matrix(2.8125,0,0,2.8125,-21.194407999515533,0)" stroke="none" fill="url(#ee7e619a-ba3e-4f27-b237-2f2b18becf81)"><path d="M18.396 26.495L7.807 15.905 18.432 5.28l.707.707-9.918 9.918 9.882 9.883z"></path><path d="M23.194 1v4.194H19V1h4.194m1-1H18v6.194h6.194V0zM23.194 26.806V31H19v-4.194h4.194m1-1H18V32h6.194v-6.194z"></path></g><!----></svg>